<?xml version="1.0" encoding="UTF-8"?>
<svg id="Layer_1" xmlns="http://www.w3.org/2000/svg" width="100" height="100" version="1.1" viewBox="0 0 100 100">
  <!-- Generator: Adobe Illustrator 30.1.0, SVG Export Plug-In . SVG Version: 2.1.1 Build 136)  -->
  <rect x="25" y="25" width="50" height="50"/>
  <path d="M50,25h-25v25c13.8071289,0,25-11.1928711,25-25Z" fill="#fff"/>
  <path d="M75,50v-25h-25c0,13.8071289,11.1928711,25,25,25Z" fill="#fff"/>
  <path d="M25,50v25h25c0-13.8071289-11.1928711-25-25-25Z" fill="#fff"/>
  <path d="M75,50c-13.8071289,0-25,11.1928711-25,25h25v-25Z" fill="#fff"/>
  <path d="M0,25c0,13.8071289,11.1928711,25,25,25v-25H0Z" fill="#00aeef"/>
  <path d="M75,0c-13.8071289,0-25,11.1928711-25,25h25V0Z" fill="#00aeef"/>
  <path d="M25,100c13.8071289,0,25-11.1928711,25-25h-25v25Z" fill="#00aeef"/>
  <path d="M75,50v25h25c0-13.8071289-11.1928711-25-25-25Z" fill="#00aeef"/>
  <path d="M50,25C50,11.1928711,38.8071289,0,25,0S0,11.1928711,0,25h50Z"/>
  <path d="M75,50c13.8071289,0,25-11.1928711,25-25S88.8071289,0,75,0v50Z"/>
  <path d="M25,50c-13.8071289,0-25,11.1928711-25,25s11.1928711,25,25,25v-50Z"/>
  <path d="M50,75c0,13.8071289,11.1928711,25,25,25s25-11.1928711,25-25h-50Z"/>
</svg>