<svg xmlns="http://www.w3.org/2000/svg" viewBox="0 0 64 64" role="img" aria-label="DOST TNA">
  <!-- Hexagon frame -->
  <polygon points="32,4 55.8,17.5 55.8,46.5 32,60 8.2,46.5 8.2,17.5"
           fill="none" stroke="#3E86C8" stroke-width="3.2" stroke-linejoin="round"/>

  <!-- Ascending growth arrow: blue rise, red rise (Philippine-flag colors) -->
  <path d="M15 44 L25 32 L31.5 38" fill="none" stroke="#0038A8"
        stroke-width="5.4" stroke-linecap="round" stroke-linejoin="round"/>
  <path d="M31.5 38 L45 22.5" fill="none" stroke="#CE1126"
        stroke-width="5.4" stroke-linecap="round" stroke-linejoin="round"/>
  <!-- arrowhead -->
  <path d="M38.5 20.5 L47.5 19 L46 28 Z" fill="#CE1126"/>

  <!-- Sun (top-right) -->
  <circle cx="49.5" cy="13.5" r="3.1" fill="#FCB711"/>
  <g stroke="#FCB711" stroke-width="1.5" stroke-linecap="round">
    <line x1="49.5" y1="6.8" x2="49.5" y2="8.8"/>
    <line x1="49.5" y1="18.2" x2="49.5" y2="20.2"/>
    <line x1="42.8" y1="13.5" x2="44.8" y2="13.5"/>
    <line x1="54.2" y1="13.5" x2="56.2" y2="13.5"/>
    <line x1="44.8" y1="8.8" x2="46.2" y2="10.2"/>
    <line x1="52.8" y1="16.8" x2="54.2" y2="18.2"/>
    <line x1="54.2" y1="8.8" x2="52.8" y2="10.2"/>
    <line x1="46.2" y1="16.8" x2="44.8" y2="18.2"/>
  </g>

  <!-- Star (bottom-left) -->
  <path d="M16 39.5 l1.25 2.55 2.8 .4 -2.02 1.97 .48 2.78 -2.51-1.32 -2.51 1.32 .48-2.78 -2.02-1.97 2.8-.4 z"
        fill="#FCB711"/>
</svg>
